<?xml version="1.0" encoding="utf-8"?>
<!-- Generator: Adobe Illustrator 22.0.0, SVG Export Plug-In . SVG Version: 6.00 Build 0)  -->
<svg version="1.1" id="Camada_1" xmlns="http://www.w3.org/2000/svg" xmlns:xlink="http://www.w3.org/1999/xlink" x="0px" y="0px"
	 viewBox="0 0 64 64" style="enable-background:new 0 0 64 64;" xml:space="preserve">
<style type="text/css">
	.st0{fill:none;stroke:#1449BE;stroke-width:4;stroke-miterlimit:10;}
	.st1{fill:none;stroke:#16EC8E;stroke-width:4;stroke-miterlimit:10;}
	.st2{fill:#1449BE;}
</style>
<line class="st1" x1="24" y1="37.7" x2="40" y2="37.7"/>
<polygon class="st2" points="43.2,38 43,38.3 43,42.9 46,45.5 46,50 18,50 18,45.5 21,42.9 21,38.3 21,38 14,43.5 14,54 50,54 
	50,43.5 "/>
<path class="st0" d="M37,10H27c-2.3,2.3-3.7,3.7-6,6v10c2.3,2.3,3.7,3.7,6,6h10c2.3-2.3,3.7-3.7,6-6V16C40.7,13.7,39.3,12.3,37,10z"
	/>
</svg>
